<?xml version="1.0" encoding="utf-8"?>
<!-- Generator: Adobe Illustrator 21.0.0, SVG Export Plug-In . SVG Version: 6.00 Build 0)  -->
<svg version="1.1" id="图层_1" xmlns="http://www.w3.org/2000/svg" xmlns:xlink="http://www.w3.org/1999/xlink" x="0px" y="0px"
	 viewBox="0 0 1024 1024" style="enable-background:new 0 0 1024 1024;" xml:space="preserve">
<style type="text/css">
	.st0{fill:#C4E8F7;}
	.st1{fill:#88C8F1;}
</style>
<path class="st0" d="M153.5,743.3c0,0-25.3-196.6,128-240l145.1-28.5l132.9-176.3c0,0,65.1,6.4,116.6-39.3l48.8-32.5l212.1,193
	l-22.3,53.8L483.5,743.3H153.5z M207.5,675.7"/>
<path class="st1" d="M819.1,764.9c9.3,0,16.8-7.5,16.8-16.8c0-9.3-7.6-16.8-16.8-16.8c-9.3,0-16.8,7.5-16.8,16.8
	C802.2,757.3,809.8,764.9,819.1,764.9L819.1,764.9z M479.8,550.1c-9.3,0-16.9,7.6-16.9,16.9c0.3,9,7.8,16.2,16.8,16.2
	c9.1,0,16.5-7.2,16.8-16.2C496.6,557.6,489,550.1,479.8,550.1L479.8,550.1z M479.8,550.1"/>
<path class="st1" d="M544,732.7l199.3,0c4.8,0,10,0.4,14.3,0.6c11.7,0.6,14.7,11,13.9,17c-0.9,7.2-5.6,12.7-11.8,13.9
	c-4.3,0.8-10,0.7-15.3,0.7c-190.8,0.1-381.6,0.1-572.5,0c-32.9,0-44.9-11.4-43.9-44.7c1-33.1-0.4-67,6.8-98.9
	c19.2-85.4,92.6-144,180-148.1c22.5-1.1,45-0.9,67.5-0.3c10.6,0.3,17.4-2.7,24.1-11.6c42.2-56.1,85-111.7,128.3-166.9
	c5.3-6.8,15.1-14,23-14.2c60.9-2.2,110.1-28.1,151.8-70.9c20.6-21.2,22.3-21,43.4,0.1c56.5,56.5,112.9,113,169.6,169.2
	c42.3,41.9,37.6,87.5-13.1,119.5c-117.3,74.1-234.6,148.2-351.9,222.3c-4.8,3.1-9.6,6.4-14.4,9.5C543.4,730.8,543.7,731.8,544,732.7
	L544,732.7z M787.4,295.1c-1.9,1.5-5.7,4.4-9.3,7.5c-77,65.6-166.9,96.5-267.3,97.9c-14.9,0.2-24.3,4.5-29.3,19
	c7.5,7.5,15,15.1,22.6,22.6c14.1,14,28.4,27.6,42.1,42c7.1,7.5,8.4,16.7,0.4,24.3c-7.4,6.9-15.8,5.3-23.1-1.2
	c-4-3.5-7.7-7.4-11.5-11.2c-16.9-17-33.7-34-51.6-52l-35.8,45.8c9.4,8,18.8,15.2,27.1,23.5c6.8,6.8,8,15.4,0.6,22.9
	c-7.4,7.6-15.3,6.2-22.6-0.5c-6.3-5.8-12.2-12.1-18.7-17.7c-5.5-4.7-11.3-11.8-17.6-12.5c-16.2-1.8-32.7-0.6-51.6-0.6
	c3.2,4,4.6,6.1,6.3,7.9c19.1,19.5,38.5,38.8,57.4,58.6c10.7,11.2,7.3,27.5-6,28.2c-6.3,0.3-14.2-4.2-19.1-9
	c-25.9-24.9-50.8-50.8-76.6-75.7c-3.6-3.5-11.1-5.5-16-4.5c-70.5,14.6-121,73.3-126.8,148.8h17.4c86.3,0,172.5,0.4,258.8-0.4
	c11.4-0.1,24.4-3.8,34-10c131.2-85,262-170.7,392.8-256.3c4.8-3.2,9.5-6.5,13.6-9.4L787.4,295.1z M902.4,405.4
	c-5.2,3.3-9.8,6.1-14.3,9c-135.3,88.7-270.6,177.7-406.3,265.9c-10,6.5-23.6,10.6-35.5,10.7c-89.5,0.9-179.1,0.5-268.6,0.5h-16.6
	v40.3c2.6,0.4,4.2,0.9,5.7,0.9c100.8,0,201.6,0.1,302.4-0.1c5.5,0,11.7-2,16.3-4.9c137.9-86.8,275.6-173.7,413.2-260.9
	C925.1,450,926.5,427.2,902.4,405.4L902.4,405.4z M518.2,368.2c96.4-3.7,178.7-34.1,247.9-98.5c-13-12.5-24.7-23.8-36.8-35.5
	c-43.5,45.6-96.9,72.3-160.6,77.3c-3.4,0.3-7.8,1.7-9.8,4.2C545.6,332.2,532.8,349.2,518.2,368.2L518.2,368.2z M518.2,368.2"/>
</svg>
